# xmcd
#
# Track frame offsets:
#	300
#	19569
#	36844
#	51748
#	71164
#	84913
#	104543
#	118067
#
# Disc length: 1802 seconds
#
# Revision: 0
# Processed by: cddbd v1.5.2PL0 Copyright (c) Steve Scherf et al.
# Submitted via: audiograbber 1.83.01
#
DISCID=6e070608
DTITLE=JOHNNY REID - FOG
DYEAR=2012
DGENRE=COUNTRY
TTITLE0=JOHNNY REID - DANCE WITH ME
TTITLE1=JOHNNY REID - A WOMAN LIKE YOU
TTITLE2=JOHNNY REID - DARLIN'
TTITLE3=JOHNNY REID - DANCE WITH ME
TTITLE4=JOHNNY REID - LET'S GO HIGHER
TTITLE5=JOHNNY REID - TODAY I'M GONNA TRY AND CHANGE THE WORLD
TTITLE6=JOHNNY REID - OUT OF THE BLUE
TTITLE7=JOHNNY REID - FIRE IT UP
EXTD=
EXTT0=
EXTT1=
EXTT2=
EXTT3=
EXTT4=
EXTT5=
EXTT6=
EXTT7=
PLAYORDER=
